<svg width="803" height="154" viewBox="0 0 803 154" fill="none" xmlns="http://www.w3.org/2000/svg">
<path d="M8.75 123V54.375H27.4531V106.969H50.7031V123H8.75ZM128.609 88.8281C128.609 93.7656 127.703 98.3906 125.891 102.703C124.078 107.016 121.438 110.875 117.969 114.281C114.469 117.656 110.469 120.266 105.969 122.109C101.469 123.922 96.7969 124.828 91.9531 124.828C87.0469 124.828 82.3438 123.922 77.8438 122.109C73.375 120.266 69.4375 117.656 66.0312 114.281C62.5 110.875 59.8125 107 57.9688 102.656C56.1562 98.3125 55.25 93.7031 55.25 88.8281C55.25 83.9219 56.1562 79.3125 57.9688 75C59.8125 70.6562 62.5 66.7812 66.0312 63.375C69.4375 60 73.375 57.4062 77.8438 55.5938C82.3438 53.75 87.0469 52.8281 91.9531 52.8281C96.8281 52.8281 101.516 53.75 106.016 55.5938C110.547 57.4062 114.531 60 117.969 63.375C121.406 66.75 124.031 70.6094 125.844 74.9531C127.688 79.2969 128.609 83.9219 128.609 88.8281ZM91.9531 108.984C97.1406 108.984 101.422 107.078 104.797 103.266C108.203 99.4531 109.906 94.6406 109.906 88.8281C109.906 83.0781 108.188 78.2812 104.75 74.4375C101.312 70.5938 97.0469 68.6719 91.9531 68.6719C86.7656 68.6719 82.4688 70.5938 79.0625 74.4375C75.6875 78.25 74 83.0469 74 88.8281C74 94.7031 75.6719 99.5312 79.0156 103.312C82.3594 107.094 86.6719 108.984 91.9531 108.984ZM158.328 123L129.547 54.375H149.422L163.156 92.7656C163.281 93.1719 163.531 94.1562 163.906 95.7188C164.312 97.25 164.828 99.3281 165.453 101.953C165.953 99.8594 166.422 97.9688 166.859 96.2812C167.297 94.5938 167.625 93.4219 167.844 92.7656L181.484 54.375H201.359L172.578 123H158.328ZM206.938 123V54.375H248.984V69.4219H225.172V81.3281H247.625V96.0469H225.172V107.625H248.984V123H206.938ZM267.906 93.4375C271.615 97.6458 275.26 100.792 278.844 102.875C282.469 104.958 286.073 106 289.656 106C292.99 106 295.719 105.104 297.844 103.312C300.01 101.521 301.094 99.25 301.094 96.5C301.094 93.4583 300.156 91.125 298.281 89.5C296.448 87.8333 292.26 86.125 285.719 84.375C276.76 81.9583 270.427 78.8125 266.719 74.9375C263.01 71.0625 261.156 65.75 261.156 59C261.156 50.25 264.073 43.125 269.906 37.625C275.781 32.0833 283.385 29.3125 292.719 29.3125C297.76 29.3125 302.531 30 307.031 31.375C311.573 32.7083 315.865 34.75 319.906 37.5L312.094 55.4375C309.26 53.0208 306.344 51.2083 303.344 50C300.385 48.75 297.448 48.125 294.531 48.125C291.531 48.125 289.094 48.8542 287.219 50.3125C285.344 51.7292 284.406 53.5625 284.406 55.8125C284.406 58.1042 285.219 59.9375 286.844 61.3125C288.51 62.6875 291.698 64 296.406 65.25L297.531 65.5625C307.698 68.3125 314.385 71.3333 317.594 74.625C319.76 76.875 321.406 79.5833 322.531 82.75C323.656 85.875 324.219 89.3542 324.219 93.1875C324.219 102.896 321.031 110.708 314.656 116.625C308.281 122.5 299.781 125.438 289.156 125.438C282.781 125.438 276.969 124.354 271.719 122.188C266.51 120.021 261.49 116.625 256.656 112L267.906 93.4375ZM353.312 123H335.781V54.375H355.328C362.984 54.375 368.359 54.75 371.453 55.5C374.547 56.25 377.172 57.5312 379.328 59.3438C381.859 61.4375 383.781 64.0625 385.094 67.2188C386.438 70.3438 387.109 73.8281 387.109 77.6719C387.109 81.7656 386.453 85.375 385.141 88.5C383.828 91.5938 381.891 94.1406 379.328 96.1406C377.391 97.6406 375.109 98.7188 372.484 99.375C369.859 100.031 365.656 100.359 359.875 100.359H356.688H353.312V123ZM353.312 85.2656H356.875C361.375 85.2656 364.516 84.6562 366.297 83.4375C368.078 82.1875 368.969 80.0781 368.969 77.1094C368.969 74.2344 368.094 72.1875 366.344 70.9688C364.594 69.75 361.5 69.1406 357.062 69.1406H353.312V85.2656ZM397.094 123V54.375H415.984V123H397.094ZM431.125 123V54.375H450.672C458.328 54.375 463.656 54.7344 466.656 55.4531C469.688 56.1406 472.297 57.3125 474.484 58.9688C476.953 60.8438 478.844 63.2344 480.156 66.1406C481.5 69.0469 482.172 72.25 482.172 75.75C482.172 81.0625 480.859 85.3906 478.234 88.7344C475.641 92.0469 471.844 94.25 466.844 95.3438L485.547 123H464.406L448.656 96.1406V123H431.125ZM448.656 86.8125H452.125C456.156 86.8125 459.094 86.125 460.938 84.75C462.812 83.375 463.75 81.2188 463.75 78.2812C463.75 74.8438 462.875 72.4062 461.125 70.9688C459.406 69.5 456.5 68.7656 452.406 68.7656H448.656V86.8125ZM510.859 97.3594H529.469L522.484 74.7188C522.266 74.0312 521.969 72.9219 521.594 71.3906C521.219 69.8594 520.734 67.8906 520.141 65.4844C519.734 67.1719 519.328 68.7812 518.922 70.3125C518.547 71.8438 518.156 73.3125 517.75 74.7188L510.859 97.3594ZM484.656 123L508.328 54.375H531.766L555.484 123H536.875L533.406 110.719H506.828L503.266 123H484.656ZM568.047 123V70.5938H552.672V54.375H602.125V70.5938H586.75V123H568.047ZM611.781 123V54.375H630.672V123H611.781ZM716.266 88.8281C716.266 93.7656 715.359 98.3906 713.547 102.703C711.734 107.016 709.094 110.875 705.625 114.281C702.125 117.656 698.125 120.266 693.625 122.109C689.125 123.922 684.453 124.828 679.609 124.828C674.703 124.828 670 123.922 665.5 122.109C661.031 120.266 657.094 117.656 653.688 114.281C650.156 110.875 647.469 107 645.625 102.656C643.812 98.3125 642.906 93.7031 642.906 88.8281C642.906 83.9219 643.812 79.3125 645.625 75C647.469 70.6562 650.156 66.7812 653.688 63.375C657.094 60 661.031 57.4062 665.5 55.5938C670 53.75 674.703 52.8281 679.609 52.8281C684.484 52.8281 689.172 53.75 693.672 55.5938C698.203 57.4062 702.188 60 705.625 63.375C709.062 66.75 711.688 70.6094 713.5 74.9531C715.344 79.2969 716.266 83.9219 716.266 88.8281ZM679.609 108.984C684.797 108.984 689.078 107.078 692.453 103.266C695.859 99.4531 697.562 94.6406 697.562 88.8281C697.562 83.0781 695.844 78.2812 692.406 74.4375C688.969 70.5938 684.703 68.6719 679.609 68.6719C674.422 68.6719 670.125 70.5938 666.719 74.4375C663.344 78.25 661.656 83.0469 661.656 88.8281C661.656 94.7031 663.328 99.5312 666.672 103.312C670.016 107.094 674.328 108.984 679.609 108.984ZM728.031 123V54.375H746.078L772 89.6719C772.5 90.3906 773.312 91.8438 774.438 94.0312C775.594 96.1875 776.859 98.7656 778.234 101.766C777.859 98.9219 777.578 96.3906 777.391 94.1719C777.234 91.9531 777.156 89.9844 777.156 88.2656V54.375H795.109V123H777.156L751.234 87.5625C750.703 86.8438 749.859 85.4062 748.703 83.25C747.578 81.0625 746.344 78.5 745 75.5625C745.375 78.4375 745.641 80.9844 745.797 83.2031C745.984 85.4219 746.078 87.3906 746.078 89.1094V123H728.031Z" fill="black"/>
<path d="M405.648 136.324C405.648 135.594 405.454 135.019 405.064 134.599C404.681 134.178 404.155 133.968 403.487 133.968C402.819 133.968 402.293 134.178 401.91 134.599C401.526 135.019 401.334 135.594 401.334 136.324C401.334 137.06 401.523 137.639 401.9 138.059C402.284 138.473 402.813 138.681 403.487 138.681C404.155 138.681 404.681 138.47 405.064 138.05C405.454 137.629 405.648 137.054 405.648 136.324ZM408.58 126.62V141H405.537V139.479C405.117 140.109 404.643 140.583 404.118 140.898C403.592 141.207 403.007 141.362 402.364 141.362C401.047 141.362 399.999 140.907 399.219 139.998C398.44 139.089 398.05 137.864 398.05 136.324C398.05 134.834 398.437 133.631 399.21 132.715C399.989 131.794 401.004 131.333 402.253 131.333C403.045 131.333 403.688 131.475 404.183 131.76C404.684 132.044 405.129 132.521 405.519 133.188C405.481 132.966 405.454 132.715 405.435 132.437C405.417 132.153 405.407 131.846 405.407 131.519V126.62H408.58ZM417.486 135.109C417.424 134.577 417.22 134.15 416.874 133.829C416.534 133.507 416.113 133.346 415.612 133.346C415.074 133.346 414.644 133.495 414.323 133.792C414.007 134.082 413.797 134.521 413.692 135.109H417.486ZM420.743 136.974H413.618C413.624 137.697 413.809 138.257 414.174 138.653C414.539 139.042 415.056 139.237 415.724 139.237C416.225 139.237 416.645 139.145 416.985 138.959C417.332 138.767 417.595 138.486 417.774 138.115L420.26 139.117C419.963 139.834 419.438 140.388 418.683 140.777C417.929 141.167 417.004 141.362 415.909 141.362C414.276 141.362 412.965 140.91 411.976 140.007C410.992 139.098 410.5 137.901 410.5 136.417C410.5 134.957 410.992 133.745 411.976 132.78C412.965 131.815 414.215 131.333 415.724 131.333C417.276 131.333 418.501 131.822 419.397 132.799C420.294 133.776 420.743 135.115 420.743 136.816V136.974ZM421.772 140.221L422.459 137.697C422.941 138.118 423.47 138.443 424.045 138.671C424.627 138.894 425.211 139.005 425.799 139.005C426.213 139.005 426.529 138.94 426.745 138.811C426.962 138.674 427.07 138.48 427.07 138.226C427.07 137.812 426.634 137.502 425.762 137.298C425.477 137.23 425.248 137.172 425.075 137.122C424.086 136.85 423.365 136.494 422.914 136.055C422.468 135.61 422.246 135.035 422.246 134.33C422.246 133.42 422.586 132.694 423.266 132.149C423.953 131.605 424.88 131.333 426.049 131.333C426.649 131.333 427.258 131.404 427.877 131.546C428.502 131.682 429.139 131.896 429.788 132.187L429.102 134.459C428.662 134.163 428.217 133.937 427.766 133.782C427.314 133.628 426.863 133.55 426.411 133.55C426.034 133.55 425.749 133.609 425.558 133.727C425.366 133.844 425.27 134.014 425.27 134.237C425.27 134.571 425.703 134.852 426.569 135.081C426.767 135.137 426.915 135.177 427.014 135.202C428.158 135.529 428.953 135.916 429.398 136.361C429.85 136.8 430.076 137.397 430.076 138.152C430.076 139.111 429.708 139.887 428.972 140.48C428.236 141.068 427.262 141.362 426.049 141.362C425.227 141.362 424.463 141.266 423.758 141.074C423.053 140.889 422.391 140.604 421.772 140.221ZM431.773 128.708C431.773 128.207 431.95 127.78 432.302 127.427C432.661 127.075 433.091 126.898 433.592 126.898C434.111 126.898 434.544 127.072 434.891 127.418C435.243 127.764 435.419 128.194 435.419 128.708C435.419 129.221 435.24 129.657 434.881 130.016C434.529 130.374 434.099 130.554 433.592 130.554C433.097 130.554 432.67 130.371 432.312 130.006C431.953 129.641 431.773 129.208 431.773 128.708ZM431.94 141V131.63H435.252V141H431.94ZM444.929 136.287C444.929 135.563 444.734 134.998 444.344 134.589C443.961 134.175 443.429 133.968 442.749 133.968C442.062 133.968 441.521 134.175 441.125 134.589C440.735 134.998 440.541 135.563 440.541 136.287C440.541 137.005 440.735 137.57 441.125 137.985C441.521 138.399 442.062 138.606 442.749 138.606C443.423 138.606 443.955 138.399 444.344 137.985C444.734 137.57 444.929 137.005 444.929 136.287ZM447.833 131.63V140.981C447.833 142.398 447.4 143.443 446.534 144.117C445.674 144.798 444.341 145.138 442.535 145.138C441.076 145.138 439.931 144.866 439.103 144.321C438.274 143.783 437.835 143.019 437.785 142.03H441.208C441.258 142.32 441.419 142.546 441.691 142.707C441.969 142.874 442.334 142.958 442.786 142.958C443.497 142.958 443.986 142.784 444.251 142.438C444.524 142.098 444.66 141.377 444.66 140.276V139.423C444.313 140.01 443.871 140.45 443.333 140.74C442.795 141.025 442.155 141.167 441.413 141.167C440.176 141.167 439.183 140.722 438.435 139.831C437.686 138.934 437.312 137.741 437.312 136.25C437.312 134.747 437.702 133.553 438.481 132.669C439.266 131.778 440.321 131.333 441.645 131.333C442.343 131.333 442.946 131.478 443.454 131.769C443.967 132.06 444.409 132.514 444.78 133.133V131.63H447.833ZM450.328 141V131.63H453.353V133.532C453.792 132.771 454.299 132.214 454.874 131.862C455.449 131.509 456.139 131.333 456.943 131.333C457.549 131.333 458.087 131.432 458.557 131.63C459.033 131.822 459.42 132.1 459.717 132.465C459.964 132.78 460.14 133.164 460.246 133.615C460.351 134.067 460.403 134.741 460.403 135.638V141H457.091V135.981C457.091 135.233 456.968 134.688 456.72 134.348C456.479 134.008 456.089 133.838 455.551 133.838C454.865 133.838 454.364 134.091 454.048 134.599C453.733 135.106 453.575 135.928 453.575 137.066V141H450.328ZM461.869 140.221L462.556 137.697C463.038 138.118 463.567 138.443 464.142 138.671C464.723 138.894 465.308 139.005 465.896 139.005C466.31 139.005 466.625 138.94 466.842 138.811C467.058 138.674 467.167 138.48 467.167 138.226C467.167 137.812 466.73 137.502 465.858 137.298C465.574 137.23 465.345 137.172 465.172 137.122C464.182 136.85 463.462 136.494 463.01 136.055C462.565 135.61 462.342 135.035 462.342 134.33C462.342 133.42 462.682 132.694 463.363 132.149C464.049 131.605 464.977 131.333 466.146 131.333C466.746 131.333 467.355 131.404 467.974 131.546C468.598 131.682 469.235 131.896 469.885 132.187L469.198 134.459C468.759 134.163 468.314 133.937 467.862 133.782C467.411 133.628 466.959 133.55 466.508 133.55C466.131 133.55 465.846 133.609 465.654 133.727C465.463 133.844 465.367 134.014 465.367 134.237C465.367 134.571 465.8 134.852 466.666 135.081C466.863 135.137 467.012 135.177 467.111 135.202C468.255 135.529 469.05 135.916 469.495 136.361C469.947 136.8 470.172 137.397 470.172 138.152C470.172 139.111 469.804 139.887 469.068 140.48C468.332 141.068 467.358 141.362 466.146 141.362C465.323 141.362 464.56 141.266 463.854 141.074C463.149 140.889 462.488 140.604 461.869 140.221Z" fill="black"/>
<rect x="397" y="53" width="20" height="70" fill="black"/>
<path d="M397 95L417 75V123H397V95Z" fill="#C57144"/>
<path d="M7 49H28V107L7 123V49Z" fill="#C57144"/>
<line x1="6.70938" y1="122.593" x2="27.7094" y2="107.593" stroke="white"/>
<line x1="397" y1="46.5" x2="799" y2="46.5" stroke="black" stroke-width="3"/>
<line y1="130.5" x2="397" y2="130.5" stroke="black" stroke-width="3"/>
</svg>
