<svg width="298" height="115" viewBox="0 0 298 115" fill="none" xmlns="http://www.w3.org/2000/svg">
<line x1="47.5187" y1="92.7639" x2="58.5187" y2="23.7639" stroke="#C57144" stroke-width="3" stroke-dasharray="6 6"/>
<path d="M131.188 92H113.703L109.672 62.3281C109.391 60.2344 109.125 57.9062 108.875 55.3438C108.656 52.7812 108.453 49.9844 108.266 46.9531C107.828 49.8594 106.969 53.4844 105.688 57.8281C105.406 58.7344 105.203 59.4062 105.078 59.8438L95.75 92H83.2812L73.9531 59.8438C73.8281 59.4062 73.6406 58.7344 73.3906 57.8281C72.0781 53.4844 71.2188 49.875 70.8125 47C70.625 49.5938 70.4062 52.1719 70.1562 54.7344C69.9062 57.2656 69.6094 59.7969 69.2656 62.3281L65.2344 92H47.8438L58.4375 23.375H76.9531L87.3125 58.7656C87.375 59.0156 87.5 59.4219 87.6875 59.9844C88.6562 63.1406 89.2656 65.8438 89.5156 68.0938C89.6406 66.875 89.875 65.5312 90.2188 64.0625C90.5625 62.5625 91.0312 60.7656 91.625 58.6719L102.078 23.375H120.641L131.188 92ZM250.062 92H232.578L228.547 62.3281C228.266 60.2344 228 57.9062 227.75 55.3438C227.531 52.7812 227.328 49.9844 227.141 46.9531C226.703 49.8594 225.844 53.4844 224.562 57.8281C224.281 58.7344 224.078 59.4062 223.953 59.8438L214.625 92H202.156L192.828 59.8438C192.703 59.4062 192.516 58.7344 192.266 57.8281C190.953 53.4844 190.094 49.875 189.688 47C189.5 49.5938 189.281 52.1719 189.031 54.7344C188.781 57.2656 188.484 59.7969 188.141 62.3281L184.109 92H166.719L177.312 23.375H195.828L206.188 58.7656C206.25 59.0156 206.375 59.4219 206.562 59.9844C207.531 63.1406 208.141 65.8438 208.391 68.0938C208.516 66.875 208.75 65.5312 209.094 64.0625C209.438 62.5625 209.906 60.7656 210.5 58.6719L220.953 23.375H239.516L250.062 92Z" fill="white"/>
<rect x="139" y="22" width="20" height="70" fill="white"/>
<path d="M139 64L159 44V92H139V64Z" fill="#C57144"/>
<rect x="279.021" y="92" width="20" height="70" transform="rotate(179.983 279.021 92)" fill="white"/>
<path d="M279.009 50L259.015 70.006L259 22.006L279 22L279.009 50Z" fill="#C57144"/>
<line x1="55.1982" y1="95.5" x2="239" y2="95.5" stroke="#C57144" stroke-width="3" stroke-dasharray="6 6"/>
<line x1="37" y1="95.5" x2="170.757" y2="95.5" stroke="white" stroke-width="3"/>
</svg>
